<svg width="1200" height="680" viewBox="0 0 1200 680" fill="none" xmlns="http://www.w3.org/2000/svg">
  <rect width="1200" height="680" rx="36" fill="url(#bg)"/>
  <rect x="76" y="74" width="1048" height="532" rx="30" fill="#FFFFFF" fill-opacity="0.92"/>
  <rect x="122" y="126" width="244" height="28" rx="14" fill="#0F766E"/>
  <rect x="122" y="174" width="420" height="16" rx="8" fill="#CBD5E1"/>
  <rect x="122" y="204" width="384" height="16" rx="8" fill="#E2E8F0"/>
  <rect x="122" y="268" width="286" height="248" rx="26" fill="#ECFEFF"/>
  <rect x="438" y="268" width="286" height="248" rx="26" fill="#F0FDF4"/>
  <rect x="754" y="268" width="286" height="248" rx="26" fill="#EFF6FF"/>
  <rect x="154" y="302" width="90" height="18" rx="9" fill="#0891B2"/>
  <rect x="154" y="336" width="182" height="12" rx="6" fill="#94A3B8"/>
  <rect x="154" y="362" width="156" height="12" rx="6" fill="#CBD5E1"/>
  <rect x="470" y="302" width="90" height="18" rx="9" fill="#16A34A"/>
  <rect x="470" y="336" width="182" height="12" rx="6" fill="#94A3B8"/>
  <rect x="470" y="362" width="156" height="12" rx="6" fill="#CBD5E1"/>
  <rect x="786" y="302" width="90" height="18" rx="9" fill="#2563EB"/>
  <rect x="786" y="336" width="182" height="12" rx="6" fill="#94A3B8"/>
  <rect x="786" y="362" width="156" height="12" rx="6" fill="#CBD5E1"/>
  <defs>
    <linearGradient id="bg" x1="82" y1="26" x2="1084" y2="654" gradientUnits="userSpaceOnUse">
      <stop stop-color="#CCFBF1"/>
      <stop offset="1" stop-color="#DBEAFE"/>
    </linearGradient>
  </defs>
</svg>
