<svg width="1200" height="680" viewBox="0 0 1200 680" fill="none" xmlns="http://www.w3.org/2000/svg">
  <rect width="1200" height="680" rx="36" fill="#0F172A"/>
  <rect x="64" y="64" width="500" height="552" rx="30" fill="url(#left)"/>
  <rect x="598" y="64" width="538" height="170" rx="30" fill="#F8FAFC"/>
  <rect x="598" y="256" width="260" height="170" rx="30" fill="#CCFBF1"/>
  <rect x="876" y="256" width="260" height="170" rx="30" fill="#DBEAFE"/>
  <rect x="598" y="446" width="538" height="170" rx="30" fill="#E2E8F0"/>
  <rect x="104" y="114" width="154" height="20" rx="10" fill="#CCFBF1"/>
  <rect x="104" y="154" width="236" height="14" rx="7" fill="rgba(255,255,255,0.55)"/>
  <rect x="104" y="182" width="218" height="14" rx="7" fill="rgba(255,255,255,0.32)"/>
  <rect x="104" y="242" width="420" height="256" rx="28" fill="rgba(255,255,255,0.12)"/>
  <path d="M132 446C192 390 252 350 312 362C372 374 430 340 500 274" stroke="#5EEAD4" stroke-width="16" stroke-linecap="round"/>
  <circle cx="132" cy="446" r="15" fill="#5EEAD4"/>
  <circle cx="312" cy="362" r="15" fill="#67E8F9"/>
  <circle cx="500" cy="274" r="15" fill="#93C5FD"/>
  <rect x="636" y="102" width="160" height="18" rx="9" fill="#14B8A6"/>
  <rect x="636" y="136" width="308" height="12" rx="6" fill="#CBD5E1"/>
  <rect x="636" y="162" width="270" height="12" rx="6" fill="#E2E8F0"/>
  <defs>
    <linearGradient id="left" x1="94" y1="74" x2="514" y2="600" gradientUnits="userSpaceOnUse">
      <stop stop-color="#115E59"/>
      <stop offset="1" stop-color="#0EA5E9"/>
    </linearGradient>
  </defs>
</svg>
