<svg width="1200" height="680" viewBox="0 0 1200 680" fill="none" xmlns="http://www.w3.org/2000/svg">
  <rect width="1200" height="680" rx="36" fill="#F8FAFC"/>
  <rect x="48" y="48" width="1104" height="584" rx="28" fill="url(#panel)" stroke="#D6E4F0"/>
  <rect x="96" y="112" width="220" height="124" rx="24" fill="#FFFFFF"/>
  <rect x="96" y="278" width="220" height="124" rx="24" fill="#FFFFFF"/>
  <rect x="96" y="444" width="220" height="124" rx="24" fill="#FFFFFF"/>
  <rect x="408" y="190" width="340" height="304" rx="32" fill="#0F766E"/>
  <rect x="840" y="112" width="264" height="124" rx="24" fill="#FFFFFF"/>
  <rect x="840" y="278" width="264" height="124" rx="24" fill="#FFFFFF"/>
  <rect x="840" y="444" width="264" height="124" rx="24" fill="#FFFFFF"/>
  <path d="M316 174H408" stroke="#94A3B8" stroke-width="10" stroke-linecap="round"/>
  <path d="M316 340H408" stroke="#94A3B8" stroke-width="10" stroke-linecap="round"/>
  <path d="M316 506H408" stroke="#94A3B8" stroke-width="10" stroke-linecap="round"/>
  <path d="M748 252H840" stroke="#94A3B8" stroke-width="10" stroke-linecap="round"/>
  <path d="M748 340H840" stroke="#94A3B8" stroke-width="10" stroke-linecap="round"/>
  <path d="M748 428H840" stroke="#94A3B8" stroke-width="10" stroke-linecap="round"/>
  <rect x="128" y="144" width="92" height="18" rx="9" fill="#14B8A6"/>
  <rect x="128" y="176" width="144" height="12" rx="6" fill="#CBD5E1"/>
  <rect x="128" y="308" width="92" height="18" rx="9" fill="#0EA5E9"/>
  <rect x="128" y="340" width="144" height="12" rx="6" fill="#CBD5E1"/>
  <rect x="128" y="474" width="92" height="18" rx="9" fill="#6366F1"/>
  <rect x="128" y="506" width="144" height="12" rx="6" fill="#CBD5E1"/>
  <rect x="460" y="246" width="140" height="18" rx="9" fill="#CCFBF1"/>
  <rect x="460" y="286" width="236" height="14" rx="7" fill="rgba(255,255,255,0.46)"/>
  <rect x="460" y="314" width="220" height="14" rx="7" fill="rgba(255,255,255,0.36)"/>
  <rect x="460" y="370" width="236" height="88" rx="24" fill="rgba(255,255,255,0.12)"/>
  <rect x="872" y="144" width="110" height="18" rx="9" fill="#14B8A6"/>
  <rect x="872" y="176" width="172" height="12" rx="6" fill="#CBD5E1"/>
  <rect x="872" y="310" width="110" height="18" rx="9" fill="#0EA5E9"/>
  <rect x="872" y="342" width="172" height="12" rx="6" fill="#CBD5E1"/>
  <rect x="872" y="476" width="110" height="18" rx="9" fill="#6366F1"/>
  <rect x="872" y="508" width="172" height="12" rx="6" fill="#CBD5E1"/>
  <defs>
    <linearGradient id="panel" x1="90" y1="80" x2="1120" y2="612" gradientUnits="userSpaceOnUse">
      <stop stop-color="#F8FBFF"/>
      <stop offset="1" stop-color="#EFF6FF"/>
    </linearGradient>
  </defs>
</svg>
